<svg width="1056" height="466" viewBox="0 0 1056 466" fill="none" xmlns="http://www.w3.org/2000/svg">
<g filter="url(#filter0_d_53_3)">
<mask id="path-1-outside-1_53_3" maskUnits="userSpaceOnUse" x="108" y="105" width="847" height="310" fill="black">
<rect fill="white" x="108" y="105" width="847" height="310"/>
<path d="M200.946 233.84L269.826 331H228.106L168.186 243.92L152.786 331H120.866L155.306 136.4H187.226L171.546 225.16L262.826 136.4H302.866L200.946 233.84ZM353.213 199.4C359.933 192.307 368.333 186.333 378.413 181.48C388.68 176.627 399.693 174.2 411.453 174.2C423.213 174.2 433.667 176.72 442.813 181.76C451.96 186.8 459.053 193.987 464.093 203.32C469.133 212.653 471.653 223.573 471.653 236.08C471.653 241.493 471.093 247.187 469.973 253.16C467.173 268.653 461.48 282.56 452.893 294.88C444.493 307.013 434.133 316.533 421.813 323.44C409.68 330.16 396.893 333.52 383.453 333.52C371.693 333.52 361.613 331.187 353.213 326.52C345 321.667 338.56 315.693 333.893 308.6L317.093 404.36H285.173L325.213 176.72H357.133L353.213 199.4ZM437.493 253.16C438.24 249.613 438.613 245.787 438.613 241.68C438.613 229.173 434.88 219.467 427.413 212.56C420.133 205.467 410.893 201.92 399.693 201.92C391.667 201.92 383.64 203.973 375.613 208.08C367.773 212.187 360.96 218.16 355.173 226C349.387 233.84 345.56 243.08 343.693 253.72C342.947 257.267 342.573 261.093 342.573 265.2C342.573 277.707 346.213 287.6 353.493 294.88C360.96 302.16 370.2 305.8 381.213 305.8C389.427 305.8 397.453 303.747 405.293 299.64C413.32 295.347 420.227 289.187 426.013 281.16C431.8 273.133 435.627 263.8 437.493 253.16ZM534.859 156.28C529.819 156.28 525.712 154.693 522.539 151.52C519.366 148.347 517.779 144.333 517.779 139.48C517.779 132.947 520.206 127.347 525.059 122.68C530.099 117.827 535.792 115.4 542.139 115.4C547.179 115.4 551.192 116.987 554.179 120.16C557.352 123.333 558.939 127.347 558.939 132.2C558.939 138.733 556.512 144.427 551.659 149.28C546.806 153.947 541.206 156.28 534.859 156.28ZM546.899 176.72L519.739 331H487.819L514.979 176.72H546.899ZM641.727 252.6L677.567 331H641.447L617.367 278.64L576.767 331H543.447L606.727 255.12L570.607 176.72H606.727L630.807 229.08L671.407 176.72H704.727L641.727 252.6ZM795.454 174.2C814.68 174.2 829.987 179.613 841.374 190.44C852.947 201.267 858.734 215.827 858.734 234.12C858.734 238.413 858.267 243.547 857.334 249.52C856.587 253.627 855.28 258.667 853.414 264.64H735.534C735.347 265.947 735.254 267.907 735.254 270.52C735.254 281.533 738.614 290.307 745.334 296.84C752.24 303.373 761.2 306.64 772.214 306.64C789.574 306.64 802.92 299.453 812.254 285.08H846.694C839.6 299.267 829.147 310.933 815.334 320.08C801.52 329.04 785.56 333.52 767.454 333.52C754.574 333.52 743.28 331 733.574 325.96C723.867 320.92 716.307 313.733 710.894 304.4C705.48 294.88 702.774 283.773 702.774 271.08C702.774 265.667 703.334 259.88 704.454 253.72C707.254 237.853 712.947 223.947 721.534 212C730.12 199.867 740.76 190.533 753.454 184C766.334 177.467 780.334 174.2 795.454 174.2ZM825.414 241.68C825.787 238.32 825.974 235.893 825.974 234.4C825.974 224.133 822.52 216.013 815.614 210.04C808.894 204.067 800.12 201.08 789.294 201.08C777.907 201.08 767.64 204.72 758.494 212C749.347 219.28 743.094 229.173 739.734 241.68H825.414ZM942.786 123.8L906.106 331H874.186L910.866 123.8H942.786Z"/>
</mask>
<path d="M200.946 233.84L194.035 226.612L187.794 232.579L192.788 239.623L200.946 233.84ZM269.826 331V341H289.173L277.984 325.217L269.826 331ZM228.106 331L219.868 336.669L222.848 341H228.106V331ZM168.186 243.92L176.424 238.251L162.589 218.145L158.339 242.179L168.186 243.92ZM152.786 331V341H161.172L162.633 332.741L152.786 331ZM120.866 331L111.019 329.257L108.941 341H120.866V331ZM155.306 136.4V126.4H146.92L145.459 134.657L155.306 136.4ZM187.226 136.4L197.073 138.14L199.147 126.4H187.226V136.4ZM171.546 225.16L161.698 223.42L156.31 253.924L178.517 232.329L171.546 225.16ZM262.826 136.4V126.4H258.765L255.854 129.231L262.826 136.4ZM302.866 136.4L309.776 143.628L327.796 126.4H302.866V136.4ZM192.788 239.623L261.668 336.783L277.984 325.217L209.104 228.057L192.788 239.623ZM269.826 321H228.106V341H269.826V321ZM236.344 325.331L176.424 238.251L159.948 249.589L219.868 336.669L236.344 325.331ZM158.339 242.179L142.939 329.259L162.633 332.741L178.033 245.661L158.339 242.179ZM152.786 321H120.866V341H152.786V321ZM130.713 332.743L165.153 138.143L145.459 134.657L111.019 329.257L130.713 332.743ZM155.306 146.4H187.226V126.4H155.306V146.4ZM177.378 134.66L161.698 223.42L181.393 226.9L197.073 138.14L177.378 134.66ZM178.517 232.329L269.797 143.569L255.854 129.231L164.574 217.991L178.517 232.329ZM262.826 146.4H302.866V126.4H262.826V146.4ZM295.955 129.172L194.035 226.612L207.856 241.068L309.776 143.628L295.955 129.172ZM353.213 199.4L343.359 197.697L337.726 230.287L360.473 206.277L353.213 199.4ZM378.413 181.48L374.139 172.439L374.107 172.455L374.075 172.47L378.413 181.48ZM442.813 181.76L447.639 173.002L447.639 173.002L442.813 181.76ZM464.093 203.32L472.892 198.569L472.892 198.569L464.093 203.32ZM469.973 253.16L460.145 251.317L460.139 251.349L460.133 251.382L469.973 253.16ZM452.893 294.88L444.689 289.162L444.68 289.175L444.671 289.188L452.893 294.88ZM421.813 323.44L426.658 332.188L426.681 332.175L426.703 332.163L421.813 323.44ZM353.213 326.52L348.126 335.129L348.241 335.197L348.357 335.262L353.213 326.52ZM333.893 308.6L342.247 303.104L328.398 282.053L324.044 306.872L333.893 308.6ZM317.093 404.36V414.36H325.492L326.943 406.088L317.093 404.36ZM285.173 404.36L275.324 402.628L273.261 414.36H285.173V404.36ZM325.213 176.72V166.72H316.819L315.364 174.988L325.213 176.72ZM357.133 176.72L366.987 178.423L369.01 166.72H357.133V176.72ZM437.493 253.16L427.708 251.1L427.673 251.265L427.644 251.432L437.493 253.16ZM427.413 212.56L420.435 219.722L420.528 219.813L420.623 219.901L427.413 212.56ZM375.613 208.08L371.059 199.178L371.016 199.199L370.973 199.222L375.613 208.08ZM355.173 226L347.128 220.061L347.128 220.061L355.173 226ZM343.693 253.72L353.479 255.78L353.514 255.615L353.543 255.448L343.693 253.72ZM353.493 294.88L346.422 301.951L346.467 301.996L346.512 302.04L353.493 294.88ZM405.293 299.64L409.933 308.498L409.972 308.478L410.01 308.458L405.293 299.64ZM426.013 281.16L417.902 275.312L417.902 275.312L426.013 281.16ZM360.473 206.277C366.245 200.185 373.61 194.892 382.751 190.49L374.075 172.47C363.057 177.775 353.622 184.429 345.954 192.523L360.473 206.277ZM382.687 190.521C391.57 186.322 401.117 184.2 411.453 184.2V164.2C398.269 164.2 385.79 166.932 374.139 172.439L382.687 190.521ZM411.453 184.2C421.742 184.2 430.497 186.391 437.987 190.518L447.639 173.002C436.836 167.049 424.685 164.2 411.453 164.2V184.2ZM437.987 190.518C445.425 194.617 451.151 200.399 455.294 208.071L472.892 198.569C466.955 187.574 458.495 178.983 447.639 173.002L437.987 190.518ZM455.294 208.071C459.416 215.704 461.653 224.935 461.653 236.08H481.653C481.653 222.212 478.851 209.603 472.892 198.569L455.294 208.071ZM461.653 236.08C461.653 240.805 461.164 245.879 460.145 251.317L479.802 255.003C481.022 248.495 481.653 242.181 481.653 236.08H461.653ZM460.133 251.382C457.576 265.529 452.414 278.079 444.689 289.162L461.097 300.598C470.546 287.041 476.771 271.777 479.814 254.938L460.133 251.382ZM444.671 289.188C437.097 300.128 427.857 308.588 416.923 314.717L426.703 332.163C440.41 324.479 451.889 313.898 461.115 300.572L444.671 289.188ZM416.968 314.692C406.268 320.618 395.143 323.52 383.453 323.52V343.52C398.644 343.52 413.092 339.702 426.658 332.188L416.968 314.692ZM383.453 323.52C373.016 323.52 364.686 321.454 358.07 317.778L348.357 335.262C358.541 340.919 370.371 343.52 383.453 343.52V323.52ZM358.301 317.911C351.236 313.736 345.978 308.774 342.247 303.104L325.539 314.096C331.142 322.612 338.764 329.597 348.126 335.129L358.301 317.911ZM324.044 306.872L307.244 402.632L326.943 406.088L343.743 310.328L324.044 306.872ZM317.093 394.36H285.173V414.36H317.093V394.36ZM295.022 406.092L335.062 178.452L315.364 174.988L275.324 402.628L295.022 406.092ZM325.213 186.72H357.133V166.72H325.213V186.72ZM347.279 175.017L343.359 197.697L363.067 201.103L366.987 178.423L347.279 175.017ZM447.279 255.22C448.185 250.913 448.613 246.389 448.613 241.68H428.613C428.613 245.184 428.294 248.313 427.708 251.1L447.279 255.22ZM448.613 241.68C448.613 227.074 444.172 214.44 434.204 205.219L420.623 219.901C425.588 224.493 428.613 231.272 428.613 241.68H448.613ZM434.392 205.398C425.046 196.292 413.21 191.92 399.693 191.92V211.92C408.577 211.92 415.22 214.642 420.435 219.722L434.392 205.398ZM399.693 191.92C389.897 191.92 380.319 194.439 371.059 199.178L380.168 216.982C386.961 213.507 393.437 211.92 399.693 211.92V191.92ZM370.973 199.222C361.661 204.1 353.722 211.128 347.128 220.061L363.219 231.939C368.198 225.192 373.886 220.274 380.253 216.938L370.973 199.222ZM347.128 220.061C340.326 229.277 335.948 239.996 333.844 251.992L353.543 255.448C355.172 246.164 358.447 238.403 363.219 231.939L347.128 220.061ZM333.908 251.66C333.001 255.967 332.573 260.491 332.573 265.2H352.573C352.573 261.696 352.892 258.567 353.479 255.78L333.908 251.66ZM332.573 265.2C332.573 279.752 336.877 292.406 346.422 301.951L360.564 287.809C355.549 282.794 352.573 275.662 352.573 265.2H332.573ZM346.512 302.04C355.959 311.251 367.754 315.8 381.213 315.8V295.8C372.646 295.8 365.961 293.069 360.474 287.72L346.512 302.04ZM381.213 315.8C391.167 315.8 400.775 313.295 409.933 308.498L400.653 290.782C394.131 294.198 387.687 295.8 381.213 295.8V315.8ZM410.01 308.458C419.494 303.385 427.526 296.161 434.125 287.008L417.902 275.312C412.927 282.212 407.146 287.308 400.577 290.822L410.01 308.458ZM434.125 287.008C440.873 277.648 445.24 266.876 447.343 254.888L427.644 251.432C426.014 260.724 422.727 268.619 417.902 275.312L434.125 287.008ZM522.539 151.52L515.468 158.591L515.468 158.591L522.539 151.52ZM525.059 122.68L531.99 129.888L531.995 129.883L525.059 122.68ZM554.179 120.16L546.897 127.014L547.001 127.124L547.108 127.231L554.179 120.16ZM551.659 149.28L558.59 156.488L558.661 156.42L558.73 156.351L551.659 149.28ZM546.899 176.72L556.747 178.454L558.813 166.72H546.899V176.72ZM519.739 331V341H528.132L529.587 332.734L519.739 331ZM487.819 331L477.97 329.266L475.905 341H487.819V331ZM514.979 176.72V166.72H506.586L505.13 174.986L514.979 176.72ZM534.859 146.28C532.115 146.28 530.67 145.509 529.61 144.449L515.468 158.591C520.754 163.878 527.523 166.28 534.859 166.28V146.28ZM529.61 144.449C528.474 143.313 527.779 141.92 527.779 139.48H507.779C507.779 146.747 510.257 153.38 515.468 158.591L529.61 144.449ZM527.779 139.48C527.779 135.759 529.03 132.734 531.99 129.888L518.128 115.472C511.381 121.959 507.779 130.134 507.779 139.48H527.779ZM531.995 129.883C535.38 126.624 538.655 125.4 542.139 125.4V105.4C532.93 105.4 524.817 109.03 518.122 115.477L531.995 129.883ZM542.139 125.4C544.893 125.4 546.101 126.168 546.897 127.014L561.461 113.306C556.284 107.806 549.464 105.4 542.139 105.4V125.4ZM547.108 127.231C548.244 128.367 548.939 129.76 548.939 132.2H568.939C568.939 124.933 566.461 118.3 561.25 113.089L547.108 127.231ZM548.939 132.2C548.939 135.936 547.671 139.125 544.588 142.209L558.73 156.351C565.353 149.728 568.939 141.531 568.939 132.2H548.939ZM544.728 142.072C541.612 145.067 538.453 146.28 534.859 146.28V166.28C543.958 166.28 551.999 162.826 558.59 156.488L544.728 142.072ZM537.05 174.986L509.89 329.266L529.587 332.734L556.747 178.454L537.05 174.986ZM519.739 321H487.819V341H519.739V321ZM497.667 332.734L524.827 178.454L505.13 174.986L477.97 329.266L497.667 332.734ZM514.979 186.72H546.899V166.72H514.979V186.72ZM641.727 252.6L634.033 246.212L630.021 251.045L632.632 256.758L641.727 252.6ZM677.567 331V341H693.134L686.662 326.842L677.567 331ZM641.447 331L632.362 335.178L635.039 341H641.447V331ZM617.367 278.64L626.452 274.462L619.565 259.486L609.464 272.512L617.367 278.64ZM576.767 331V341H581.667L584.67 337.128L576.767 331ZM543.447 331L535.767 324.595L522.087 341H543.447V331ZM606.727 255.12L614.407 261.525L618.453 256.673L615.809 250.936L606.727 255.12ZM570.607 176.72V166.72H554.99L561.525 180.904L570.607 176.72ZM606.727 176.72L615.812 172.542L613.135 166.72H606.727V176.72ZM630.807 229.08L621.722 233.258L628.609 248.234L638.71 235.208L630.807 229.08ZM671.407 176.72V166.72H666.507L663.504 170.592L671.407 176.72ZM704.727 176.72L712.421 183.108L726.027 166.72H704.727V176.72ZM632.632 256.758L668.472 335.158L686.662 326.842L650.822 248.442L632.632 256.758ZM677.567 321H641.447V341H677.567V321ZM650.532 326.822L626.452 274.462L608.282 282.818L632.362 335.178L650.532 326.822ZM609.464 272.512L568.864 324.872L584.67 337.128L625.27 284.768L609.464 272.512ZM576.767 321H543.447V341H576.767V321ZM551.127 337.405L614.407 261.525L599.047 248.715L535.767 324.595L551.127 337.405ZM615.809 250.936L579.689 172.536L561.525 180.904L597.645 259.304L615.809 250.936ZM570.607 186.72H606.727V166.72H570.607V186.72ZM597.642 180.898L621.722 233.258L639.892 224.902L615.812 172.542L597.642 180.898ZM638.71 235.208L679.31 182.848L663.504 170.592L622.904 222.952L638.71 235.208ZM671.407 186.72H704.727V166.72H671.407V186.72ZM697.033 170.332L634.033 246.212L649.421 258.988L712.421 183.108L697.033 170.332ZM841.374 190.44L834.483 197.687L834.512 197.715L834.542 197.743L841.374 190.44ZM857.334 249.52L867.172 251.309L867.195 251.187L867.214 251.064L857.334 249.52ZM853.414 264.64V274.64H860.766L862.958 267.623L853.414 264.64ZM735.534 264.64V254.64H726.861L725.634 263.226L735.534 264.64ZM745.334 296.84L738.363 304.01L738.412 304.058L738.462 304.105L745.334 296.84ZM812.254 285.08V275.08H806.824L803.867 279.634L812.254 285.08ZM846.694 285.08L855.638 289.552L862.874 275.08H846.694V285.08ZM815.334 320.08L820.776 328.47L820.815 328.444L820.855 328.418L815.334 320.08ZM733.574 325.96L738.182 317.085L738.182 317.085L733.574 325.96ZM710.894 304.4L702.201 309.343L702.222 309.38L702.243 309.417L710.894 304.4ZM704.454 253.72L714.292 255.509L714.297 255.483L714.301 255.458L704.454 253.72ZM721.534 212L729.654 217.836L729.675 217.807L729.696 217.777L721.534 212ZM753.454 184L748.93 175.082L748.903 175.095L748.877 175.109L753.454 184ZM825.414 241.68V251.68H834.364L835.352 242.784L825.414 241.68ZM815.614 210.04L808.97 217.514L809.021 217.559L809.072 217.604L815.614 210.04ZM739.734 241.68L730.076 239.085L726.692 251.68H739.734V241.68ZM795.454 184.2C812.721 184.2 825.352 189.005 834.483 197.687L848.264 183.193C834.622 170.222 816.64 164.2 795.454 164.2V184.2ZM834.542 197.743C843.776 206.381 848.734 218.127 848.734 234.12H868.734C868.734 213.526 862.118 196.152 848.205 183.137L834.542 197.743ZM848.734 234.12C848.734 237.735 848.336 242.325 847.453 247.976L867.214 251.064C868.197 244.768 868.734 239.091 868.734 234.12H848.734ZM847.495 247.731C846.848 251.289 845.667 255.903 843.869 261.657L862.958 267.623C864.894 261.43 866.326 255.965 867.172 251.309L847.495 247.731ZM853.414 254.64H735.534V274.64H853.414V254.64ZM725.634 263.226C725.344 265.259 725.254 267.797 725.254 270.52H745.254C745.254 268.016 745.35 266.634 745.433 266.054L725.634 263.226ZM725.254 270.52C725.254 283.723 729.368 295.265 738.363 304.01L752.304 289.67C747.86 285.349 745.254 279.344 745.254 270.52H725.254ZM738.462 304.105C747.518 312.672 759.079 316.64 772.214 316.64V296.64C763.322 296.64 756.962 294.075 752.206 289.575L738.462 304.105ZM772.214 316.64C792.907 316.64 809.434 307.784 820.641 290.526L803.867 279.634C796.406 291.123 786.24 296.64 772.214 296.64V316.64ZM812.254 295.08H846.694V275.08H812.254V295.08ZM837.749 280.608C831.475 293.157 822.234 303.517 809.813 311.742L820.855 328.418C836.06 318.349 847.726 305.376 855.638 289.552L837.749 280.608ZM809.892 311.69C797.859 319.496 783.829 323.52 767.454 323.52V343.52C787.292 343.52 805.182 338.584 820.776 328.47L809.892 311.69ZM767.454 323.52C755.893 323.52 746.232 321.265 738.182 317.085L728.965 334.835C740.328 340.735 753.254 343.52 767.454 343.52V323.52ZM738.182 317.085C730.137 312.908 723.99 307.049 719.544 299.383L702.243 309.417C708.624 320.418 717.597 328.932 728.965 334.835L738.182 317.085ZM719.586 299.457C715.158 291.668 712.774 282.319 712.774 271.08H692.774C692.774 285.228 695.803 298.092 702.201 309.343L719.586 299.457ZM712.774 271.08C712.774 266.351 713.263 261.168 714.292 255.509L694.615 251.931C693.404 258.592 692.774 264.982 692.774 271.08H712.774ZM714.301 255.458C716.866 240.927 722.024 228.451 729.654 217.836L713.413 206.164C703.87 219.442 697.642 234.78 694.606 251.982L714.301 255.458ZM729.696 217.777C737.395 206.899 746.825 198.659 758.03 192.891L748.877 175.109C734.696 182.408 722.846 192.835 713.371 206.223L729.696 217.777ZM757.977 192.918C769.389 187.13 781.83 184.2 795.454 184.2V164.2C778.838 164.2 763.278 167.804 748.93 175.082L757.977 192.918ZM835.352 242.784C835.729 239.397 835.974 236.493 835.974 234.4H815.974C815.974 235.293 815.845 237.243 815.475 240.576L835.352 242.784ZM835.974 234.4C835.974 221.633 831.546 210.598 822.155 202.476L809.072 217.604C813.494 221.428 815.974 226.633 815.974 234.4H835.974ZM822.257 202.566C813.349 194.647 802.044 191.08 789.294 191.08V211.08C798.196 211.08 804.438 213.486 808.97 217.514L822.257 202.566ZM789.294 191.08C775.58 191.08 763.132 195.528 752.266 204.176L764.721 219.824C772.149 213.912 780.234 211.08 789.294 211.08V191.08ZM752.266 204.176C741.266 212.931 733.928 224.748 730.076 239.085L749.391 244.275C752.259 233.599 757.428 225.629 764.721 219.824L752.266 204.176ZM739.734 251.68H825.414V231.68H739.734V251.68ZM942.786 123.8L952.633 125.543L954.712 113.8H942.786V123.8ZM906.106 331V341H914.491L915.953 332.743L906.106 331ZM874.186 331L864.339 329.257L862.26 341H874.186V331ZM910.866 123.8V113.8H902.481L901.019 122.057L910.866 123.8ZM932.939 122.057L896.259 329.257L915.953 332.743L952.633 125.543L932.939 122.057ZM906.106 321H874.186V341H906.106V321ZM884.033 332.743L920.713 125.543L901.019 122.057L864.339 329.257L884.033 332.743ZM910.866 133.8H942.786V113.8H910.866V133.8Z" fill="url(#paint0_linear_53_3)" mask="url(#path-1-outside-1_53_3)"/>
</g>
<defs>
<filter id="filter0_d_53_3" x="106.266" y="100.8" width="851.12" height="318.16" filterUnits="userSpaceOnUse" color-interpolation-filters="sRGB">
<feFlood flood-opacity="0" result="BackgroundImageFix"/>
<feColorMatrix in="SourceAlpha" type="matrix" values="0 0 0 0 0 0 0 0 0 0 0 0 0 0 0 0 0 0 127 0" result="hardAlpha"/>
<feOffset/>
<feGaussianBlur stdDeviation="7.3"/>
<feColorMatrix type="matrix" values="0 0 0 0 0.441667 0 0 0 0 1 0 0 0 0 0.9665 0 0 0 1 0"/>
<feBlend mode="normal" in2="BackgroundImageFix" result="effect1_dropShadow_53_3"/>
<feBlend mode="normal" in="SourceGraphic" in2="effect1_dropShadow_53_3" result="shape"/>
</filter>
<linearGradient id="paint0_linear_53_3" x1="114" y1="233" x2="942" y2="233" gradientUnits="userSpaceOnUse">
<stop stop-color="#71FFF6"/>
<stop offset="1" stop-color="#F0FFFE"/>
</linearGradient>
</defs>
</svg>
